<svg width="63" height="85" viewBox="0 0 63 85" fill="none" xmlns="http://www.w3.org/2000/svg">
<path d="M36.2197 25.5C46.0356 25.5 54.881 28.3595 61.2471 32.9326C67.6148 37.5071 71.4395 43.7387 71.4395 50.5195C71.4393 57.3002 67.6147 63.5311 61.2471 68.1055C54.881 72.6787 46.0357 75.538 36.2197 75.5381C26.4036 75.5381 17.5575 72.6788 11.1914 68.1055C4.82394 63.5311 1.00011 57.3001 1 50.5195C1 43.7388 4.82374 37.507 11.1914 32.9326C17.5575 28.3593 26.4036 25.5 36.2197 25.5Z" fill="white" stroke="white" stroke-width="2"/>
<path d="M72.6516 1C92.177 1 107.652 13.9369 107.652 29.5C107.652 45.0631 92.177 58 72.6516 58C53.1262 58 37.6516 45.0631 37.6516 29.5C37.6516 13.9369 53.1262 1 72.6516 1Z" fill="white" stroke="white" stroke-width="2"/>
<path d="M104.652 34C117.214 34 128.538 36.8798 136.687 41.4854C144.865 46.1081 149.652 52.3396 149.652 59C149.652 65.6604 144.865 71.8919 136.687 76.5146C128.538 81.1202 117.214 84 104.652 84C92.0891 84 80.7648 81.1202 72.6165 76.5146C64.4378 71.8919 59.6516 65.6604 59.6516 59C59.6516 52.3396 64.4378 46.1081 72.6165 41.4854C80.7648 36.8798 92.0891 34 104.652 34Z" fill="white" stroke="white" stroke-width="2"/>
</svg>
