<svg width="110" height="85" viewBox="0 0 110 85" fill="none" xmlns="http://www.w3.org/2000/svg">
<path d="M-4.78027 25.5C5.03561 25.5 13.881 28.3595 20.2471 32.9326C26.6148 37.5071 30.4395 43.7387 30.4395 50.5195C30.4393 57.3002 26.6147 63.5311 20.2471 68.1055C13.881 72.6787 5.0357 75.538 -4.78027 75.5381C-14.5964 75.5381 -23.4425 72.6788 -29.8086 68.1055C-36.1761 63.5311 -39.9999 57.3001 -40 50.5195C-40 43.7388 -36.1763 37.507 -29.8086 32.9326C-23.4425 28.3593 -14.5964 25.5 -4.78027 25.5Z" fill="white" stroke="white" stroke-width="2"/>
<path d="M31.6516 1C51.177 1 66.6516 13.9369 66.6516 29.5C66.6516 45.0631 51.177 58 31.6516 58C12.1262 58 -3.34839 45.0631 -3.34839 29.5C-3.34839 13.9369 12.1262 1 31.6516 1Z" fill="white" stroke="white" stroke-width="2"/>
<path d="M63.6516 34C76.2142 34 87.5384 36.8798 95.6868 41.4854C103.865 46.1081 108.652 52.3396 108.652 59C108.652 65.6604 103.865 71.8919 95.6868 76.5146C87.5384 81.1202 76.2142 84 63.6516 84C51.0891 84 39.7648 81.1202 31.6165 76.5146C23.4378 71.8919 18.6516 65.6604 18.6516 59C18.6516 52.3396 23.4378 46.1081 31.6165 41.4854C39.7648 36.8798 51.0891 34 63.6516 34Z" fill="white" stroke="white" stroke-width="2"/>
</svg>
