<svg width="95" height="110" viewBox="0 0 95 110" fill="none" xmlns="http://www.w3.org/2000/svg">
<path d="M44.1904 11.7812C45.0986 9.03868 48.9785 9.03869 49.8867 11.7812L55.7412 29.4629C56.4189 31.5094 58.3325 32.8916 60.4883 32.8916H79.2725C82.1924 32.8916 83.3913 36.639 81.0137 38.334L65.9482 49.0742C64.1626 50.3473 63.4151 52.6359 64.1045 54.7178L69.8896 72.1875C70.8016 74.9414 67.662 77.2572 65.2998 75.5732L49.9404 64.624C48.2036 63.386 45.8725 63.3859 44.1357 64.624L28.7764 75.5732C26.4142 77.2572 23.2755 74.9414 24.1875 72.1875L29.9727 54.7178C30.6621 52.6358 29.9137 50.3473 28.1279 49.0742L13.0625 38.334C10.6853 36.639 11.8842 32.8919 14.8037 32.8916H33.5889C35.7445 32.8915 37.6573 31.5093 38.335 29.4629L44.1904 11.7812Z" fill="#8FE655" stroke="#C2FF6B" stroke-width="2"/>
<path d="M46.5682 39.9231C66.0371 39.9232 81.7877 55.4042 81.7879 74.4612C81.7879 93.5184 66.0373 109 46.5682 109C27.099 109 11.3484 93.5184 11.3484 74.4612C11.3487 55.4041 27.0991 39.9231 46.5682 39.9231Z" fill="#F8E53B" stroke="#AC7E00" stroke-width="2"/>
<path d="M39 86.625V60.375L59.625 73.5L39 86.625Z" fill="#7A4F31"/>
</svg>
