<svg width="168" height="413" viewBox="0 0 168 413" fill="none" xmlns="http://www.w3.org/2000/svg">
<path d="M122.564 13.7211C124.617 8.5943 122.126 2.77337 116.999 0.719726C111.872 -1.33389 106.052 1.15741 103.998 6.28424L113.281 10.0027L122.564 13.7211ZM17.3402 287.174L11.0094 294.915L17.3402 287.174ZM161.018 404.679L167.349 396.938L23.671 279.433L17.3402 287.174L11.0094 294.915L154.688 412.42L161.018 404.679ZM11.4358 264.255L20.7188 267.974L122.564 13.7211L113.281 10.0027L103.998 6.28424L2.15287 260.537L11.4358 264.255ZM17.3402 287.174L23.671 279.433C20.2899 276.668 19.0946 272.028 20.7188 267.974L11.4358 264.255L2.15287 260.537C-2.71953 272.701 0.866251 286.619 11.0094 294.915L17.3402 287.174Z" fill="white"/>
</svg>
